<svg width="180" height="48" viewBox="0 0 180 48" fill="none" xmlns="http://www.w3.org/2000/svg">
<path d="M18.136 14C18.4 14.048 18.988 14.972 19.9 16.772C20.812 18.548 21.928 20.852 23.248 23.684L24.4 26.096C24.904 25.544 25.372 24.908 25.804 24.188C26.236 23.444 26.776 22.448 27.424 21.2C28.168 19.784 28.684 18.872 28.972 18.464C30.124 16.712 31.372 14.852 32.716 12.884C32.884 12.62 33.184 12.44 33.616 12.344C33.688 12.32 33.808 12.308 33.976 12.308C34.552 12.308 35.188 12.548 35.884 13.028C36.604 13.508 37.072 14 37.288 14.504C37.336 14.6 37.36 14.78 37.36 15.044C37.36 15.284 37.348 15.464 37.324 15.584C37.276 15.8 37.216 16.076 37.144 16.412C37.096 16.724 37.048 17.096 37 17.528C36.232 23.384 35.68 27.776 35.344 30.704C35.248 31.376 35.2 32.132 35.2 32.972L35.128 34.124C35.104 34.364 35.092 34.64 35.092 34.952C35.092 35.264 35.056 35.48 34.984 35.6C34.912 35.72 34.78 35.78 34.588 35.78C34.444 35.78 34.228 35.744 33.94 35.672C33.172 35.504 32.584 35.204 32.176 34.772C31.768 34.316 31.54 33.692 31.492 32.9C31.468 32.492 31.456 31.856 31.456 30.992C31.456 30.104 31.48 28.748 31.528 26.924L31.564 24.944L31.636 22.1C31.42 22.292 30.868 23.048 29.98 24.368C29.116 25.664 28.264 27.02 27.424 28.436C26.584 29.852 26.032 30.944 25.768 31.712C25.528 32.312 25.288 32.756 25.048 33.044C24.832 33.332 24.568 33.476 24.256 33.476C23.968 33.476 23.596 33.344 23.14 33.08C21.844 32.288 21.052 31.196 20.764 29.804C20.308 27.668 19.744 25.448 19.072 23.144C18.952 22.712 18.712 22.124 18.352 21.38C18.016 20.636 17.8 20.168 17.704 19.976L17.236 19.04C13.732 23.696 11.356 27.968 10.108 31.856C9.868 32.672 9.64 33.26 9.424 33.62C9.208 33.956 8.956 34.124 8.668 34.124C8.212 34.124 7.564 33.716 6.724 32.9C6.076 32.324 5.752 31.676 5.752 30.956C5.752 30.572 5.824 30.188 5.968 29.804C6.976 26.828 8.476 24.008 10.468 21.344L11.584 19.868C13.096 17.876 14.236 16.316 15.004 15.188C15.58 14.348 16.348 13.928 17.308 13.928C17.476 13.928 17.752 13.952 18.136 14ZM48.3245 29.336C48.7565 27.584 49.0205 26.228 49.1165 25.268C49.2365 24.284 49.4405 23.588 49.7285 23.18C50.0165 22.772 50.4965 22.568 51.1685 22.568C52.1765 22.568 52.9805 22.796 53.5805 23.252C54.1805 23.708 54.4805 24.332 54.4805 25.124C54.4805 25.22 54.4565 25.412 54.4085 25.7C54.0485 27.668 53.4605 29.72 52.6445 31.856C51.3485 35.36 49.9565 38.864 48.4685 42.368C48.0125 43.4 47.3285 44.396 46.4165 45.356C46.2005 45.596 45.9965 45.716 45.8045 45.716C45.5165 45.716 45.3005 45.404 45.1565 44.78C45.0125 44.132 44.9405 43.508 44.9405 42.908C44.9405 42.212 45.0125 41.516 45.1565 40.82C45.3005 40.148 45.5045 39.332 45.7685 38.372C46.0085 37.46 46.1765 36.776 46.2725 36.32C46.3685 35.84 46.4165 35.504 46.4165 35.312C46.4165 34.568 46.0565 33.956 45.3365 33.476C44.0885 32.66 43.1405 31.628 42.4925 30.38C41.8685 29.108 41.3645 27.596 40.9805 25.844C40.9565 25.772 40.9445 25.664 40.9445 25.52C40.9445 25.088 41.1125 24.716 41.4485 24.404C41.7845 24.092 42.1685 23.936 42.6005 23.936C42.8645 23.936 43.0925 23.984 43.2845 24.08C43.9085 24.344 44.4005 24.68 44.7605 25.088C45.1205 25.472 45.3845 25.988 45.5525 26.636C45.6965 27.236 45.9125 27.86 46.2005 28.508C46.4885 29.156 46.6565 29.552 46.7045 29.696L47.2085 30.884H48.0005L48.3245 29.336ZM74.4816 20.48C73.7856 21.776 73.3296 22.796 73.1136 23.54C72.9216 24.284 72.7536 25.172 72.6096 26.204C72.8496 26.204 73.2456 26.204 73.7976 26.204C74.3496 26.18 74.7096 26.156 74.8776 26.132L76.9296 25.7C77.4336 25.58 77.8776 25.484 78.2616 25.412C78.6456 25.316 79.3536 25.184 80.3856 25.016C80.8416 24.944 81.3336 24.896 81.8616 24.872C82.3896 24.848 82.7376 24.836 82.9056 24.836C83.4816 24.836 83.9136 24.824 84.2016 24.8C84.6096 24.8 84.8976 24.872 85.0656 25.016C85.7616 25.616 86.1096 26.132 86.1096 26.564C86.1096 26.852 86.0016 27.056 85.7856 27.176C85.5696 27.296 85.2336 27.428 84.7776 27.572L81.4296 28.292L74.4456 30.2C74.3256 30.224 74.2056 30.272 74.0856 30.344C73.9896 30.392 73.8816 30.428 73.7616 30.452C72.9936 30.62 72.4776 30.764 72.2136 30.884C71.9736 30.98 71.8176 31.16 71.7456 31.424C71.6976 31.688 71.6736 32.204 71.6736 32.972V34.412C71.6736 35.06 71.6496 35.552 71.6016 35.888C71.4576 37.088 71.0136 37.688 70.2696 37.688C69.8616 37.688 69.3936 37.532 68.8656 37.22C68.2656 36.86 67.8096 36.464 67.4976 36.032C67.2096 35.576 67.0656 35.048 67.0656 34.448C67.0656 34.232 67.0776 34.064 67.1016 33.944C67.2936 32.264 67.4256 31.016 67.4976 30.2C67.5696 29.504 67.6656 28.628 67.7856 27.572C67.9056 26.492 68.0616 25.244 68.2536 23.828C68.5656 21.596 69.3456 19.628 70.5936 17.924C71.8656 16.22 73.5336 14.66 75.5976 13.244C77.6376 11.828 79.6776 10.928 81.7176 10.544C82.1256 10.448 82.5936 10.4 83.1216 10.4C84.7056 10.4 86.0616 11 87.1896 12.2C87.6456 12.656 87.8736 13.052 87.8736 13.388C87.8736 13.532 87.8136 13.724 87.6936 13.964C87.3816 14.468 86.9496 14.72 86.3976 14.72C86.2056 14.72 86.0016 14.684 85.7856 14.612C85.6656 14.564 85.5096 14.516 85.3176 14.468C85.1496 14.42 85.0176 14.372 84.9216 14.324C84.5136 14.036 84.0456 13.892 83.5176 13.892C82.7976 13.676 81.9936 13.808 81.1056 14.288C80.2176 14.768 79.0056 15.608 77.4696 16.808C76.6536 17.408 75.9456 18.092 75.3456 18.86L74.4816 20.48ZM89.5156 32.864C89.5636 32.528 89.5876 32.036 89.5876 31.388L89.5516 29.264L89.1196 23L89.0836 22.46C89.0836 21.188 89.6236 20.552 90.7036 20.552C90.9676 20.552 91.1956 20.648 91.3876 20.84C91.6036 21.032 91.7956 21.128 91.9636 21.128C92.3236 21.128 92.6356 20.972 92.8996 20.66C93.1876 20.324 93.4876 19.988 93.7996 19.652C94.3036 19.124 94.8916 18.704 95.5636 18.392C96.2596 18.08 96.9556 17.924 97.6516 17.924C98.3236 17.924 98.8636 18.008 99.2716 18.176C99.3916 18.224 99.5236 18.332 99.6676 18.5C99.8356 18.644 99.9196 18.764 99.9196 18.86C99.9196 18.956 99.8476 19.1 99.7036 19.292C99.5836 19.46 99.4756 19.556 99.3796 19.58C98.4436 19.772 97.6276 20.168 96.9316 20.768C96.2596 21.368 95.8156 21.92 95.5996 22.424C95.4076 22.904 95.1196 23.804 94.7356 25.124C94.5196 25.868 94.3516 26.636 94.2316 27.428C94.1356 28.196 94.0996 29.18 94.1236 30.38C94.0996 30.5 94.0876 30.668 94.0876 30.884C94.0876 31.196 94.1116 31.616 94.1596 32.144C94.2076 32.72 94.2316 33.128 94.2316 33.368C94.2316 34.568 94.0996 35.252 93.8356 35.42C93.4516 35.612 92.9476 35.708 92.3236 35.708C91.8196 35.708 91.4116 35.648 91.0996 35.528C90.0196 35.12 89.4796 34.376 89.4796 33.296C89.4796 33.104 89.4916 32.96 89.5156 32.864ZM104.129 19.724C104.081 19.868 103.901 20.024 103.589 20.192C103.301 20.36 103.061 20.516 102.869 20.66L101.861 20.12C100.877 19.592 100.205 19.172 99.8453 18.86C99.6533 18.716 99.5573 18.536 99.5573 18.32C99.5573 18.176 99.6053 18.056 99.7013 17.96C99.8213 17.84 99.9893 17.78 100.205 17.78C101.141 17.78 102.281 18.02 103.625 18.5C103.769 18.524 103.901 18.692 104.021 19.004C104.141 19.292 104.177 19.532 104.129 19.724ZM100.889 26.42C100.961 26.108 101.009 25.88 101.033 25.736C101.057 25.592 101.069 25.436 101.069 25.268C101.069 24.932 101.165 24.668 101.357 24.476C101.573 24.284 101.969 24.188 102.545 24.188C103.217 24.188 103.805 24.404 104.309 24.836C104.837 25.244 105.161 25.784 105.281 26.456C105.353 26.792 105.401 27.164 105.425 27.572C105.449 27.98 105.461 28.244 105.461 28.364L105.965 34.52C106.037 35.168 105.941 35.672 105.677 36.032C105.437 36.368 104.969 36.536 104.273 36.536C103.673 36.536 103.157 36.368 102.725 36.032C102.317 35.696 102.065 35.264 101.969 34.736L101.033 27.104L100.889 26.42ZM113.506 22.46C113.722 22.436 113.902 22.436 114.046 22.46C114.19 22.46 114.322 22.46 114.442 22.46C114.61 22.436 114.862 22.424 115.198 22.424C116.83 22.424 118.438 22.892 120.022 23.828C120.718 24.26 121.066 24.716 121.066 25.196C121.066 25.724 120.706 26.192 119.986 26.6C119.386 26.96 118.762 27.38 118.114 27.86C116.962 28.628 115.978 29.228 115.162 29.66C114.37 30.092 113.494 30.392 112.534 30.56C112.39 30.608 112.234 30.74 112.066 30.956C111.922 31.148 111.862 31.292 111.886 31.388C111.934 31.532 112.018 31.832 112.138 32.288C112.258 32.72 112.39 33.092 112.534 33.404C112.702 33.692 112.894 33.932 113.11 34.124C113.35 34.316 113.71 34.412 114.19 34.412C114.67 34.412 115.114 34.34 115.522 34.196C116.962 33.524 118.33 32.684 119.626 31.676C120.01 31.412 120.346 31.28 120.634 31.28C120.994 31.28 121.378 31.472 121.786 31.856C122.074 32.12 122.218 32.396 122.218 32.684C122.218 32.996 121.99 33.38 121.534 33.836C119.494 35.828 117.322 36.824 115.018 36.824C114.394 36.824 113.626 36.704 112.714 36.464C111.178 36.08 110.002 35.228 109.186 33.908C108.37 32.588 107.962 31.076 107.962 29.372C107.962 28.844 107.998 28.34 108.07 27.86C108.094 27.692 108.142 27.344 108.214 26.816C108.31 26.264 108.454 25.808 108.646 25.448C109.558 23.648 111.178 22.652 113.506 22.46ZM115.594 25.052C115.162 24.908 114.778 24.836 114.442 24.836C113.89 24.836 113.458 25.004 113.146 25.34C112.834 25.676 112.582 26.18 112.39 26.852C112.966 26.924 113.578 26.78 114.226 26.42C114.898 26.036 115.354 25.58 115.594 25.052ZM130.482 22.928C130.482 23.072 130.458 23.264 130.41 23.504C130.362 23.72 130.35 23.864 130.374 23.936C132.03 23.576 133.434 23.396 134.586 23.396C136.386 23.396 137.742 24.26 138.654 25.988C139.398 27.452 139.77 29.072 139.77 30.848C139.77 31.304 139.722 31.964 139.626 32.828C139.554 33.404 139.326 33.872 138.942 34.232C138.558 34.568 138.102 34.736 137.574 34.736C137.022 34.736 136.626 34.64 136.386 34.448C136.17 34.232 136.038 33.992 135.99 33.728C135.966 33.464 135.954 33.044 135.954 32.468L135.918 31.712C135.87 30.272 135.774 29.024 135.63 27.968C135.558 27.536 135.39 27.236 135.126 27.068C134.886 26.876 134.562 26.78 134.154 26.78C133.77 26.78 133.314 26.84 132.786 26.96C131.97 27.176 131.418 27.344 131.13 27.464C130.866 27.584 130.47 27.836 129.942 28.22C129.774 28.34 129.654 28.58 129.582 28.94C129.51 29.3 129.474 29.504 129.474 29.552C129.162 31.088 128.826 32.924 128.466 35.06C128.442 35.156 128.394 35.384 128.322 35.744C128.25 36.104 128.106 36.356 127.89 36.5C127.698 36.668 127.41 36.728 127.026 36.68C125.514 36.488 124.746 35.852 124.722 34.772C124.698 33.38 124.806 31.736 125.046 29.84C125.214 28.472 125.37 27.368 125.514 26.528C125.562 26.144 125.622 25.676 125.694 25.124C125.79 24.572 125.874 23.936 125.946 23.216C126.018 22.664 126.09 22.256 126.162 21.992C126.234 21.728 126.402 21.512 126.666 21.344C126.93 21.152 127.338 21.056 127.89 21.056C128.586 21.056 129.162 21.212 129.618 21.524C130.074 21.836 130.362 22.28 130.482 22.856V22.928ZM159.16 33.62C158.8 33.692 158.452 33.728 158.116 33.728C157.324 33.728 156.58 33.524 155.884 33.116C155.188 32.708 154.468 32.108 153.724 31.316L153.364 32.252C153.028 33.212 152.86 33.68 152.86 33.656C152.596 34.568 152.068 35.3 151.276 35.852C150.484 36.38 149.608 36.644 148.648 36.644C147.976 36.644 147.328 36.512 146.704 36.248C146.08 35.96 145.528 35.552 145.048 35.024C143.896 33.728 143.32 32.348 143.32 30.884C143.32 29.276 144.004 27.608 145.372 25.88C145.972 25.136 146.656 24.632 147.424 24.368C148.216 24.104 149.14 23.972 150.196 23.972C150.7 23.972 151.06 23.864 151.276 23.648C151.492 23.432 151.576 23.048 151.528 22.496C151.288 20.096 151.168 17.9 151.168 15.908C151.168 15.356 151.264 14.576 151.456 13.568C151.552 13.088 151.78 12.704 152.14 12.416C152.5 12.104 152.932 11.948 153.436 11.948C153.604 11.948 153.724 11.96 153.796 11.984C154.948 12.2 155.524 12.896 155.524 14.072L155.596 16.34C155.692 20.852 155.836 24.224 156.028 26.456C156.076 27.104 156.22 27.728 156.46 28.328C156.724 28.928 157.108 29.744 157.612 30.776C157.732 31.016 158.068 31.256 158.62 31.496C158.692 31.544 158.812 31.604 158.98 31.676C159.172 31.748 159.316 31.832 159.412 31.928C159.628 32.072 159.832 32.276 160.024 32.54C160.216 32.78 160.348 32.948 160.42 33.044C160.252 33.116 160.036 33.224 159.772 33.368C159.532 33.488 159.328 33.572 159.16 33.62ZM149.26 26.564C148.66 26.948 148.168 27.56 147.784 28.4C147.4 29.216 147.208 30.068 147.208 30.956C147.208 32.228 147.628 33.236 148.468 33.98C149.236 32.684 149.824 31.496 150.232 30.416C150.64 29.312 150.844 28.184 150.844 27.032C150.844 26.528 150.604 26.276 150.124 26.276C149.86 26.276 149.572 26.372 149.26 26.564ZM167.087 37.292C165.071 37.292 163.787 36.428 163.235 34.7C163.427 34.7 163.679 34.712 163.991 34.736C164.327 34.736 164.603 34.76 164.819 34.808C165.155 34.856 165.395 34.88 165.539 34.88C166.619 34.88 167.519 34.4 168.239 33.44C168.743 32.744 168.995 32.036 168.995 31.316C168.995 30.836 168.875 30.368 168.635 29.912C168.107 28.976 167.459 27.944 166.691 26.816C166.187 26.072 165.731 25.364 165.323 24.692C164.843 23.924 164.603 23.072 164.603 22.136C164.603 21.272 164.843 20.516 165.323 19.868C165.827 19.196 166.559 18.776 167.519 18.608L168.671 18.392C169.919 18.152 170.855 18.032 171.479 18.032C172.511 18.032 173.423 18.272 174.215 18.752C174.383 18.872 174.551 19.088 174.719 19.4C174.911 19.688 175.055 19.916 175.151 20.084C174.983 20.156 174.743 20.276 174.431 20.444C174.143 20.588 173.891 20.672 173.675 20.696C173.339 20.744 172.835 20.768 172.163 20.768C171.515 20.768 171.023 20.78 170.687 20.804C169.919 20.876 169.307 21.14 168.851 21.596C168.419 22.028 168.203 22.556 168.203 23.18C168.203 23.66 168.347 24.152 168.635 24.656C169.283 25.736 170.183 26.972 171.335 28.364C172.199 29.444 172.631 30.56 172.631 31.712C172.631 32.336 172.487 32.996 172.199 33.692C171.215 36.092 169.511 37.292 167.087 37.292Z" fill="#44C477"/>
<path d="M104.17 22.1667C103.769 22.3889 103.31 22.5 102.792 22.5C102.223 22.5 101.672 22.3713 101.142 22.114C100.624 21.845 100.21 21.4649 99.8994 20.9737C99.5887 20.4825 99.4593 19.9211 99.5111 19.2895L99.6082 18.8684C99.6858 18.4474 99.7505 18.1374 99.8023 17.9386C99.9188 17.5058 100.152 17.2018 100.501 17.0263C100.851 16.8509 101.317 16.7105 101.899 16.6053C102.274 16.5351 102.643 16.5 103.006 16.5C104.144 16.5 105.102 16.845 105.879 17.5351C106.293 17.9094 106.5 18.3655 106.5 18.9035C106.5 19.4298 106.286 19.9971 105.859 20.6053C105.368 21.2953 104.805 21.8158 104.17 22.1667Z" fill="#F8C203"/>
</svg>
