<svg width="24" height="24" viewBox="0 0 24 24" fill="none" xmlns="http://www.w3.org/2000/svg">
<circle cx="12" cy="12" r="12" fill="#F672E1" fill-opacity="0.2"/>
<path d="M12.9067 13.476C13.8371 13.2712 14.6474 12.8082 15.333 12.0825C16.2234 11.1431 16.6731 10.0123 16.6731 8.72564C16.6731 7.8842 16.4594 7.07393 16.0365 6.31708C15.6046 5.53797 14.9947 4.92359 14.2156 4.49174C13.4543 4.06434 12.644 3.84619 11.8026 3.84619C10.9567 3.84619 10.1419 4.05989 9.38508 4.48283C8.61488 4.91468 8.00049 5.52462 7.56419 6.30373L7.55974 6.30818C7.1368 7.07393 6.9231 7.8842 6.9231 8.72564C6.9231 9.58934 7.1457 10.4174 7.58645 11.1921L7.5909 11.201C8.04501 11.9756 8.6594 12.5767 9.4207 12.9863L9.4296 12.9907C9.857 13.2178 10.271 13.378 10.6762 13.476V14.865H7.17686V17.0955H10.6762V20.4345H12.9067V17.0955H16.3971V14.865H12.9067L12.9067 13.476ZM11.7936 6.05441C12.2522 6.05441 12.6841 6.17016 13.1248 6.41057L13.1337 6.41503C13.5567 6.63763 13.8772 6.95373 14.1132 7.37667C14.358 7.81742 14.4782 8.26263 14.4782 8.73009C14.4782 9.48249 14.22 10.1013 13.6902 10.6356C13.1649 11.1609 12.546 11.4191 11.7936 11.4191C11.0502 11.4191 10.4269 11.1654 9.89707 10.6356C9.37173 10.1058 9.11351 9.48249 9.11351 8.73009C9.11351 8.26263 9.23371 7.81742 9.47858 7.37667C9.71454 6.95373 10.0351 6.63763 10.4536 6.41057C10.9032 6.17016 11.3395 6.05441 11.7936 6.05441Z" fill="#F772E1"/>
</svg>
