<svg width="24" height="24" viewBox="0 0 24 24" fill="none" xmlns="http://www.w3.org/2000/svg">
<circle cx="12" cy="12" r="12" fill="#8EB1E5" fill-opacity="0.2"/>
<path d="M16.2774 5.6145H13.9888C13.1653 6.43792 12.7037 6.89957 11.8803 7.72299V7.72299H14.7864L12.6532 9.85619C11.948 9.4183 11.1159 9.16539 10.2247 9.16539C7.67857 9.16539 5.6145 11.2295 5.6145 13.7756C5.6145 16.3218 7.67857 18.3858 10.2247 18.3858C12.7709 18.3858 14.835 16.3218 14.835 13.7756C14.835 12.8844 14.582 12.0523 14.1442 11.3471L16.2774 9.21392V12.1201C17.1008 11.2967 17.5624 10.835 18.3858 10.0116V7.72299V5.6145H16.2774ZM10.2247 16.3654C8.79443 16.3654 7.63495 15.2059 7.63495 13.7756C7.63495 12.3453 8.79443 11.1858 10.2247 11.1858C11.655 11.1858 12.8145 12.3453 12.8145 13.7756C12.8145 15.2059 11.655 16.3654 10.2247 16.3654Z" fill="#8EB1E6"/>
</svg>
