<svg width="24" height="24" viewBox="0 0 24 24" fill="none" xmlns="http://www.w3.org/2000/svg">
<rect width="24" height="24" rx="12" fill="white" fill-opacity="0.2"/>
<path d="M18.623 7.37757C18.2403 6.99471 17.7859 6.691 17.2859 6.48379C16.7858 6.27657 16.2498 6.16992 15.7084 6.16992C15.1671 6.16992 14.6311 6.27657 14.131 6.48379C13.6309 6.691 13.1766 6.99471 12.7939 7.37757L11.9997 8.17176L11.2055 7.37757C10.4325 6.60458 9.38414 6.17032 8.29097 6.17032C7.19781 6.17032 6.14942 6.60458 5.37643 7.37757C4.60345 8.15055 4.16919 9.19894 4.16919 10.2921C4.16919 11.3853 4.60345 12.4337 5.37643 13.2066L6.17063 14.0008L11.9997 19.8299L17.8288 14.0008L18.623 13.2066C19.0058 12.824 19.3096 12.3696 19.5168 11.8695C19.724 11.3694 19.8306 10.8334 19.8306 10.2921C19.8306 9.75079 19.724 9.21478 19.5168 8.71469C19.3096 8.2146 19.0058 7.76024 18.623 7.37757V7.37757Z" stroke="white" stroke-opacity="0.4" stroke-linecap="round" stroke-linejoin="round"/>
</svg>
